<svg width="31" height="31" viewBox="0 0 31 31" fill="none" xmlns="http://www.w3.org/2000/svg">
<g clip-path="url(#clip0_4_26)">
<path d="M1.29175 5.16666V12.9167M1.29175 12.9167H9.04175M1.29175 12.9167L7.28508 7.285C8.6733 5.89608 10.3907 4.88147 12.2771 4.33583C14.1635 3.79019 16.1574 3.7313 18.0727 4.16466C19.988 4.59803 21.7623 5.50951 23.2301 6.81408C24.6979 8.11864 25.8112 9.77376 26.4663 11.625M29.7084 25.8333V18.0833M29.7084 18.0833H21.9584M29.7084 18.0833L23.7151 23.715C22.3269 25.1039 20.6094 26.1185 18.723 26.6642C16.8366 27.2098 14.8428 27.2687 12.9275 26.8353C11.0121 26.402 9.23782 25.4905 7.77006 24.1859C6.3023 22.8814 5.18892 21.2262 4.53383 19.375" stroke="#6D6969" stroke-width="4" stroke-linecap="round" stroke-linejoin="round"/>
</g>
<defs>
<clipPath id="clip0_4_26">
<rect width="31" height="31" fill="white"/>
</clipPath>
</defs>
</svg>
